<mxfile host="app.diagrams.net" agent="Mozilla/5.0 (Windows NT 10.0; Win64; x64) AppleWebKit/537.36 (KHTML, like Gecko) Chrome/134.0.0.0 Safari/537.36 Edg/134.0.0.0" version="26.1.0">
  <diagram id="6a731a19-8d31-9384-78a2-239565b7b9f0" name="Page-1">
    <mxGraphModel grid="1" page="1" gridSize="10" guides="1" tooltips="1" connect="1" arrows="1" fold="1" pageScale="1" pageWidth="1169" pageHeight="827" background="none" math="0" shadow="0">
      <root>
        <mxCell id="0" />
        <mxCell id="1" parent="0" />
        <mxCell id="lzPvwHqcFnJnjvBDmgxe-58" value="&lt;div&gt;&lt;b&gt;1.&lt;/b&gt; Faça um programa que receba dois números inteiros e gere os números inteiros que estão no intervalo compreendido por eles. Ex.: Recebe 3 e 10. Imprime 4, 5, 6, 7, 8, 9.&lt;/div&gt;" style="text;strokeColor=none;align=left;fillColor=none;html=1;verticalAlign=middle;whiteSpace=wrap;rounded=0;labelBackgroundColor=default;fontStyle=0" vertex="1" parent="1">
          <mxGeometry x="40" y="50" width="350" height="30" as="geometry" />
        </mxCell>
        <mxCell id="lzPvwHqcFnJnjvBDmgxe-59" value="&lt;div&gt;&lt;span style=&quot;color: light-dark(rgb(0, 0, 0), rgb(255, 255, 255));&quot;&gt;&lt;b&gt;2.&lt;/b&gt; Altere o programa anterior para mostrar no final a soma dos números. Ex.: Recebe 3 e 10. Imprime 4, 5, 6, 7, 8, 9. Imprime a soma: 39.&lt;/span&gt;&lt;/div&gt;" style="text;strokeColor=none;align=left;fillColor=none;html=1;verticalAlign=middle;whiteSpace=wrap;rounded=0;labelBackgroundColor=default;fontStyle=0" vertex="1" parent="1">
          <mxGeometry x="612" y="50" width="350" height="30" as="geometry" />
        </mxCell>
        <mxCell id="lzPvwHqcFnJnjvBDmgxe-60" value="&lt;div&gt;&lt;span style=&quot;color: light-dark(rgb(0, 0, 0), rgb(255, 255, 255));&quot;&gt;&lt;b&gt;3.&lt;/b&gt; Faça um programa que receba dois números, base e expoente, calcule e mostre o primeiro número elevado ao segundo número. Não utilize a função de potência da linguagem. Ex.: Recebe 2 e 5. Imprime 32.&lt;/span&gt;&lt;/div&gt;" style="text;strokeColor=none;align=left;fillColor=none;html=1;verticalAlign=middle;whiteSpace=wrap;rounded=0;labelBackgroundColor=default;fontStyle=0" vertex="1" parent="1">
          <mxGeometry x="40.5" y="1148" width="350" height="30" as="geometry" />
        </mxCell>
        <mxCell id="lzPvwHqcFnJnjvBDmgxe-61" value="&lt;div&gt;&lt;span style=&quot;color: light-dark(rgb(0, 0, 0), rgb(255, 255, 255));&quot;&gt;&lt;b&gt;4.&lt;/b&gt; A série de Fibonacci é formada pela sequência 1,1,2,3,5,8,13,21,34,55,...&lt;/span&gt;&lt;/div&gt;&lt;div&gt;&lt;span style=&quot;color: light-dark(rgb(0, 0, 0), rgb(255, 255, 255)); background-color: light-dark(#ffffff, var(--ge-dark-color, #121212));&quot;&gt;Faça um programa capaz de gerar a série até o enésimo termo. Ex. Recebe 6, imprime 8. Recebe 10, imprime 55.&lt;/span&gt;&lt;/div&gt;" style="text;strokeColor=none;align=left;fillColor=none;html=1;verticalAlign=middle;whiteSpace=wrap;rounded=0;labelBackgroundColor=default;fontStyle=0" vertex="1" parent="1">
          <mxGeometry x="612.5" y="1148" width="487.5" height="30" as="geometry" />
        </mxCell>
        <mxCell id="lzPvwHqcFnJnjvBDmgxe-62" value="&lt;h1 style=&quot;margin-top: 0px;&quot;&gt;&lt;font style=&quot;font-size: 18px; line-height: 80%;&quot;&gt;Algoritmo&lt;/font&gt;&lt;/h1&gt;&lt;p style=&quot;line-height: 80%;&quot;&gt;Algoritmo &quot;Intervalo entre Nºs&quot;&lt;/p&gt;&lt;p style=&quot;line-height: 80%;&quot;&gt;Início&lt;/p&gt;&lt;p style=&quot;line-height: 10%;&quot;&gt;Var&lt;/p&gt;&lt;p style=&quot;line-height: 10%;&quot;&gt;Num1: Inteiro&lt;/p&gt;&lt;p style=&quot;line-height: 10%;&quot;&gt;Num2: Inteiro&lt;/p&gt;&lt;p style=&quot;line-height: 10%;&quot;&gt;I: Inteiro&lt;/p&gt;&lt;p style=&quot;line-height: 10%;&quot;&gt;Escreva (&quot;Digite o primeiro número&quot;)&lt;/p&gt;&lt;p style=&quot;line-height: 10%;&quot;&gt;Leia (Num1)&lt;/p&gt;&lt;p style=&quot;line-height: 10%;&quot;&gt;Escreva (&quot;Digite o segundo número&quot;)&lt;/p&gt;&lt;p style=&quot;line-height: 10%;&quot;&gt;Leia (Num2)&lt;/p&gt;&lt;p style=&quot;line-height: 10%;&quot;&gt;&lt;br&gt;&lt;/p&gt;&lt;p style=&quot;line-height: 10%;&quot;&gt;Se (Num1 &amp;gt; Num2) então&lt;/p&gt;&lt;p style=&quot;line-height: 10%;&quot;&gt;&lt;span style=&quot;white-space: pre;&quot;&gt;&#x9;&lt;/span&gt;Troque (Num1, Num2)&lt;br&gt;&lt;/p&gt;&lt;p style=&quot;line-height: 10%;&quot;&gt;&lt;br&gt;&lt;/p&gt;&lt;p style=&quot;line-height: 10%;&quot;&gt;Para i de Num1 + 1 até Num2 - 1 faça&lt;/p&gt;&lt;p style=&quot;line-height: 10%;&quot;&gt;&lt;span style=&quot;white-space: pre;&quot;&gt;&#x9;&lt;/span&gt;Escreva (i)&lt;br&gt;&lt;/p&gt;&lt;p style=&quot;line-height: 10%;&quot;&gt;Fim Para&lt;/p&gt;&lt;p style=&quot;line-height: 10%;&quot;&gt;Fim do algoritmo&lt;/p&gt;" style="text;html=1;whiteSpace=wrap;overflow=hidden;rounded=0;" vertex="1" parent="1">
          <mxGeometry x="40" y="110" width="210" height="320" as="geometry" />
        </mxCell>
        <mxCell id="lzPvwHqcFnJnjvBDmgxe-63" value="&lt;h1 style=&quot;margin-top: 0px;&quot;&gt;&lt;font style=&quot;line-height: 80%;&quot;&gt;&lt;span style=&quot;line-height: 0%; font-size: 18px;&quot;&gt;Fluxograma&lt;/span&gt;&lt;br&gt;&lt;font style=&quot;font-size: 11px;&quot;&gt;&lt;i style=&quot;line-height: 150%;&quot;&gt;Fluxograma &quot;Intervalo entre Nºs&quot;&lt;/i&gt;&lt;/font&gt;&lt;/font&gt;&lt;/h1&gt;" style="text;html=1;whiteSpace=wrap;overflow=hidden;rounded=0;" vertex="1" parent="1">
          <mxGeometry x="250" y="110" width="210" height="70" as="geometry" />
        </mxCell>
        <mxCell id="lzPvwHqcFnJnjvBDmgxe-67" style="edgeStyle=orthogonalEdgeStyle;rounded=0;orthogonalLoop=1;jettySize=auto;html=1;exitX=0.5;exitY=1;exitDx=0;exitDy=0;exitPerimeter=0;entryX=0.5;entryY=0;entryDx=0;entryDy=0;" edge="1" parent="1" source="lzPvwHqcFnJnjvBDmgxe-64" target="lzPvwHqcFnJnjvBDmgxe-66">
          <mxGeometry relative="1" as="geometry" />
        </mxCell>
        <mxCell id="lzPvwHqcFnJnjvBDmgxe-64" value="Início" style="strokeWidth=1;html=1;shape=mxgraph.flowchart.start_1;whiteSpace=wrap;spacing=1;" vertex="1" parent="1">
          <mxGeometry x="310" y="190" width="70" height="30" as="geometry" />
        </mxCell>
        <mxCell id="lzPvwHqcFnJnjvBDmgxe-65" value="Fim" style="strokeWidth=1;html=1;shape=mxgraph.flowchart.terminator;whiteSpace=wrap;" vertex="1" parent="1">
          <mxGeometry x="305" y="780" width="80" height="30" as="geometry" />
        </mxCell>
        <mxCell id="lzPvwHqcFnJnjvBDmgxe-69" style="edgeStyle=orthogonalEdgeStyle;rounded=0;orthogonalLoop=1;jettySize=auto;html=1;exitX=0.5;exitY=1;exitDx=0;exitDy=0;entryX=0.5;entryY=0;entryDx=0;entryDy=0;" edge="1" parent="1" source="lzPvwHqcFnJnjvBDmgxe-66" target="lzPvwHqcFnJnjvBDmgxe-68">
          <mxGeometry relative="1" as="geometry" />
        </mxCell>
        <mxCell id="lzPvwHqcFnJnjvBDmgxe-66" value="Num1: Int&lt;div&gt;Num2: Int&lt;/div&gt;&lt;div&gt;I: Int&lt;/div&gt;" style="rounded=0;whiteSpace=wrap;html=1;dashed=1;dashPattern=8 8;" vertex="1" parent="1">
          <mxGeometry x="285" y="240" width="120" height="60" as="geometry" />
        </mxCell>
        <mxCell id="lzPvwHqcFnJnjvBDmgxe-73" style="edgeStyle=orthogonalEdgeStyle;rounded=0;orthogonalLoop=1;jettySize=auto;html=1;exitX=0.5;exitY=1;exitDx=0;exitDy=0;entryX=0.5;entryY=0;entryDx=0;entryDy=0;" edge="1" parent="1" source="lzPvwHqcFnJnjvBDmgxe-68" target="lzPvwHqcFnJnjvBDmgxe-70">
          <mxGeometry relative="1" as="geometry" />
        </mxCell>
        <mxCell id="lzPvwHqcFnJnjvBDmgxe-68" value="&quot;Digite o primeiro número&quot;" style="shape=parallelogram;perimeter=parallelogramPerimeter;whiteSpace=wrap;html=1;fixedSize=1;" vertex="1" parent="1">
          <mxGeometry x="282.5" y="330" width="125" height="40" as="geometry" />
        </mxCell>
        <mxCell id="lzPvwHqcFnJnjvBDmgxe-78" style="edgeStyle=orthogonalEdgeStyle;rounded=0;orthogonalLoop=1;jettySize=auto;html=1;exitX=0.5;exitY=1;exitDx=0;exitDy=0;entryX=0.5;entryY=0;entryDx=0;entryDy=0;" edge="1" parent="1" source="lzPvwHqcFnJnjvBDmgxe-70" target="lzPvwHqcFnJnjvBDmgxe-76">
          <mxGeometry relative="1" as="geometry" />
        </mxCell>
        <mxCell id="lzPvwHqcFnJnjvBDmgxe-70" value="&lt;div&gt;&lt;br&gt;&lt;/div&gt;&lt;div&gt;Num1&lt;/div&gt;" style="html=1;strokeWidth=1;shape=manualInput;whiteSpace=wrap;rounded=0;size=26;arcSize=11;" vertex="1" parent="1">
          <mxGeometry x="295" y="391" width="100" height="46" as="geometry" />
        </mxCell>
        <mxCell id="lzPvwHqcFnJnjvBDmgxe-75" style="edgeStyle=orthogonalEdgeStyle;rounded=0;orthogonalLoop=1;jettySize=auto;html=1;exitX=0.5;exitY=1;exitDx=0;exitDy=0;entryX=0.5;entryY=0;entryDx=0;entryDy=0;" edge="1" parent="1" source="lzPvwHqcFnJnjvBDmgxe-76" target="lzPvwHqcFnJnjvBDmgxe-77">
          <mxGeometry relative="1" as="geometry" />
        </mxCell>
        <mxCell id="lzPvwHqcFnJnjvBDmgxe-76" value="&quot;Digite o segundo número&quot;" style="shape=parallelogram;perimeter=parallelogramPerimeter;whiteSpace=wrap;html=1;fixedSize=1;" vertex="1" parent="1">
          <mxGeometry x="282.5" y="460" width="125" height="40" as="geometry" />
        </mxCell>
        <mxCell id="lzPvwHqcFnJnjvBDmgxe-80" style="edgeStyle=orthogonalEdgeStyle;rounded=0;orthogonalLoop=1;jettySize=auto;html=1;exitX=0.5;exitY=1;exitDx=0;exitDy=0;entryX=0.5;entryY=0;entryDx=0;entryDy=0;" edge="1" parent="1" source="lzPvwHqcFnJnjvBDmgxe-77" target="lzPvwHqcFnJnjvBDmgxe-79">
          <mxGeometry relative="1" as="geometry" />
        </mxCell>
        <mxCell id="lzPvwHqcFnJnjvBDmgxe-77" value="&lt;div&gt;&lt;br&gt;&lt;/div&gt;&lt;div&gt;Num2&lt;/div&gt;" style="html=1;strokeWidth=1;shape=manualInput;whiteSpace=wrap;rounded=0;size=26;arcSize=11;" vertex="1" parent="1">
          <mxGeometry x="295" y="521" width="100" height="46" as="geometry" />
        </mxCell>
        <mxCell id="lzPvwHqcFnJnjvBDmgxe-81" style="edgeStyle=orthogonalEdgeStyle;rounded=0;orthogonalLoop=1;jettySize=auto;html=1;exitX=0.5;exitY=1;exitDx=0;exitDy=0;entryX=0.5;entryY=0;entryDx=0;entryDy=0;" edge="1" parent="1" source="lzPvwHqcFnJnjvBDmgxe-79" target="lzPvwHqcFnJnjvBDmgxe-90">
          <mxGeometry relative="1" as="geometry">
            <mxPoint x="345" y="700" as="targetPoint" />
          </mxGeometry>
        </mxCell>
        <mxCell id="lzPvwHqcFnJnjvBDmgxe-85" value="Não" style="edgeLabel;html=1;align=center;verticalAlign=middle;resizable=0;points=[];" connectable="0" vertex="1" parent="lzPvwHqcFnJnjvBDmgxe-81">
          <mxGeometry x="-0.4667" y="2" relative="1" as="geometry">
            <mxPoint as="offset" />
          </mxGeometry>
        </mxCell>
        <mxCell id="lzPvwHqcFnJnjvBDmgxe-82" style="edgeStyle=orthogonalEdgeStyle;rounded=0;orthogonalLoop=1;jettySize=auto;html=1;exitX=1;exitY=0.5;exitDx=0;exitDy=0;entryX=0;entryY=0.5;entryDx=0;entryDy=0;" edge="1" parent="1" source="lzPvwHqcFnJnjvBDmgxe-79" target="lzPvwHqcFnJnjvBDmgxe-87">
          <mxGeometry relative="1" as="geometry">
            <mxPoint x="440" y="630" as="targetPoint" />
          </mxGeometry>
        </mxCell>
        <mxCell id="lzPvwHqcFnJnjvBDmgxe-86" value="Sim" style="edgeLabel;html=1;align=center;verticalAlign=middle;resizable=0;points=[];" connectable="0" vertex="1" parent="lzPvwHqcFnJnjvBDmgxe-82">
          <mxGeometry x="-0.2709" y="2" relative="1" as="geometry">
            <mxPoint as="offset" />
          </mxGeometry>
        </mxCell>
        <mxCell id="lzPvwHqcFnJnjvBDmgxe-79" value="Num1 &amp;gt;&lt;div&gt;Num2?&lt;/div&gt;" style="rhombus;whiteSpace=wrap;html=1;" vertex="1" parent="1">
          <mxGeometry x="297.5" y="590" width="95" height="80" as="geometry" />
        </mxCell>
        <mxCell id="lzPvwHqcFnJnjvBDmgxe-89" style="edgeStyle=orthogonalEdgeStyle;rounded=0;orthogonalLoop=1;jettySize=auto;html=1;exitX=0.5;exitY=0;exitDx=0;exitDy=0;entryX=1;entryY=0.5;entryDx=0;entryDy=0;" edge="1" parent="1" source="lzPvwHqcFnJnjvBDmgxe-87" target="lzPvwHqcFnJnjvBDmgxe-77">
          <mxGeometry relative="1" as="geometry" />
        </mxCell>
        <mxCell id="lzPvwHqcFnJnjvBDmgxe-87" value="Trocar Num1&lt;div&gt;e Num2&lt;/div&gt;" style="rounded=0;whiteSpace=wrap;html=1;" vertex="1" parent="1">
          <mxGeometry x="450" y="600" width="110" height="60" as="geometry" />
        </mxCell>
        <mxCell id="lzPvwHqcFnJnjvBDmgxe-91" style="edgeStyle=orthogonalEdgeStyle;rounded=0;orthogonalLoop=1;jettySize=auto;html=1;entryX=0;entryY=0.75;entryDx=0;entryDy=0;" edge="1" parent="1" source="lzPvwHqcFnJnjvBDmgxe-90" target="lzPvwHqcFnJnjvBDmgxe-77">
          <mxGeometry relative="1" as="geometry">
            <mxPoint x="220" y="550" as="targetPoint" />
            <Array as="points">
              <mxPoint x="260" y="730" />
              <mxPoint x="260" y="556" />
            </Array>
          </mxGeometry>
        </mxCell>
        <mxCell id="lzPvwHqcFnJnjvBDmgxe-90" value="Para i de Num1+1 até Num2-1, imprima i" style="rounded=0;whiteSpace=wrap;html=1;" vertex="1" parent="1">
          <mxGeometry x="285" y="700" width="120" height="60" as="geometry" />
        </mxCell>
        <mxCell id="lzPvwHqcFnJnjvBDmgxe-93" style="edgeStyle=orthogonalEdgeStyle;rounded=0;orthogonalLoop=1;jettySize=auto;html=1;exitX=0.5;exitY=1;exitDx=0;exitDy=0;entryX=0.5;entryY=0;entryDx=0;entryDy=0;entryPerimeter=0;" edge="1" parent="1" source="lzPvwHqcFnJnjvBDmgxe-90" target="lzPvwHqcFnJnjvBDmgxe-65">
          <mxGeometry relative="1" as="geometry" />
        </mxCell>
        <mxCell id="lzPvwHqcFnJnjvBDmgxe-94" value="&lt;h1 style=&quot;margin-top: 0px;&quot;&gt;&lt;font style=&quot;font-size: 18px; line-height: 80%;&quot;&gt;Algoritmo&lt;/font&gt;&lt;/h1&gt;&lt;p style=&quot;line-height: 80%;&quot;&gt;Algoritmo &quot;Intervalo e soma&lt;/p&gt;&lt;p style=&quot;line-height: 80%;&quot;&gt;&lt;span style=&quot;background-color: transparent; color: light-dark(rgb(0, 0, 0), rgb(255, 255, 255));&quot;&gt;entre Nºs&quot;&lt;/span&gt;&lt;/p&gt;&lt;p style=&quot;line-height: 80%;&quot;&gt;Início&lt;/p&gt;&lt;p style=&quot;line-height: 10%;&quot;&gt;Var&lt;/p&gt;&lt;p style=&quot;line-height: 10%;&quot;&gt;Num1: Inteiro&lt;/p&gt;&lt;p style=&quot;line-height: 10%;&quot;&gt;Num2: Inteiro&lt;/p&gt;&lt;p style=&quot;line-height: 10%;&quot;&gt;I: Inteiro&lt;/p&gt;&lt;p style=&quot;line-height: 10%;&quot;&gt;Soma: Inteiro&lt;/p&gt;&lt;p style=&quot;line-height: 10%;&quot;&gt;&lt;br&gt;&lt;/p&gt;&lt;p style=&quot;line-height: 10%;&quot;&gt;Soma = 0&lt;/p&gt;&lt;p style=&quot;line-height: 10%;&quot;&gt;Escreva (&quot;Digite o primeiro número&quot;)&lt;/p&gt;&lt;p style=&quot;line-height: 10%;&quot;&gt;Leia (Num1)&lt;/p&gt;&lt;p style=&quot;line-height: 10%;&quot;&gt;Escreva (&quot;Digite o segundo número&quot;)&lt;/p&gt;&lt;p style=&quot;line-height: 10%;&quot;&gt;Leia (Num2)&lt;/p&gt;&lt;p style=&quot;line-height: 10%;&quot;&gt;&lt;br&gt;&lt;/p&gt;&lt;p style=&quot;line-height: 10%;&quot;&gt;Se (Num1 &amp;gt; Num2) então&lt;/p&gt;&lt;p style=&quot;line-height: 10%;&quot;&gt;&lt;span style=&quot;white-space: pre;&quot;&gt;&#x9;&lt;/span&gt;Troque (Num1, Num2)&lt;br&gt;&lt;/p&gt;&lt;p style=&quot;line-height: 10%;&quot;&gt;&lt;br&gt;&lt;/p&gt;&lt;p style=&quot;line-height: 10%;&quot;&gt;Para i de Num1 + 1 até Num2 - 1 faça&lt;/p&gt;&lt;p style=&quot;line-height: 10%;&quot;&gt;&lt;span style=&quot;white-space: pre;&quot;&gt;&#x9;&lt;/span&gt;Escreva (i)&lt;br&gt;&lt;/p&gt;&lt;p style=&quot;line-height: 10%;&quot;&gt;&lt;span style=&quot;white-space: pre;&quot;&gt;&#x9;&lt;/span&gt;Soma := Soma + i&lt;br&gt;&lt;/p&gt;&lt;p style=&quot;line-height: 10%;&quot;&gt;&lt;span style=&quot;background-color: transparent; color: light-dark(rgb(0, 0, 0), rgb(255, 255, 255));&quot;&gt;Fim Para&lt;/span&gt;&lt;/p&gt;&lt;p style=&quot;line-height: 10%;&quot;&gt;&lt;br&gt;&lt;/p&gt;&lt;p style=&quot;line-height: 10%;&quot;&gt;Escreva (&quot;A soma é: &quot;, Soma)&lt;/p&gt;&lt;p style=&quot;line-height: 10%;&quot;&gt;&lt;br&gt;&lt;/p&gt;&lt;p style=&quot;line-height: 10%;&quot;&gt;Fim do algoritmo&lt;/p&gt;" style="text;html=1;whiteSpace=wrap;overflow=hidden;rounded=0;" vertex="1" parent="1">
          <mxGeometry x="612" y="110" width="210" height="500" as="geometry" />
        </mxCell>
        <mxCell id="lzPvwHqcFnJnjvBDmgxe-95" value="&lt;h1 style=&quot;margin-top: 0px;&quot;&gt;&lt;font style=&quot;line-height: 80%;&quot;&gt;&lt;span style=&quot;line-height: 0%; font-size: 18px;&quot;&gt;Fluxograma&lt;/span&gt;&lt;br&gt;&lt;font style=&quot;font-size: 11px;&quot;&gt;&lt;i style=&quot;line-height: 150%;&quot;&gt;Fluxograma &quot;Intervalo e soma entre Nºs&quot;&lt;/i&gt;&lt;/font&gt;&lt;/font&gt;&lt;/h1&gt;" style="text;html=1;whiteSpace=wrap;overflow=hidden;rounded=0;" vertex="1" parent="1">
          <mxGeometry x="822" y="110" width="228" height="70" as="geometry" />
        </mxCell>
        <mxCell id="lzPvwHqcFnJnjvBDmgxe-96" style="edgeStyle=orthogonalEdgeStyle;rounded=0;orthogonalLoop=1;jettySize=auto;html=1;exitX=0.5;exitY=1;exitDx=0;exitDy=0;exitPerimeter=0;entryX=0.5;entryY=0;entryDx=0;entryDy=0;" edge="1" parent="1" source="lzPvwHqcFnJnjvBDmgxe-97" target="lzPvwHqcFnJnjvBDmgxe-100">
          <mxGeometry relative="1" as="geometry" />
        </mxCell>
        <mxCell id="lzPvwHqcFnJnjvBDmgxe-97" value="Início" style="strokeWidth=1;html=1;shape=mxgraph.flowchart.start_1;whiteSpace=wrap;spacing=1;" vertex="1" parent="1">
          <mxGeometry x="880" y="200" width="70" height="30" as="geometry" />
        </mxCell>
        <mxCell id="lzPvwHqcFnJnjvBDmgxe-98" value="Fim" style="strokeWidth=1;html=1;shape=mxgraph.flowchart.terminator;whiteSpace=wrap;" vertex="1" parent="1">
          <mxGeometry x="875" y="1070" width="80" height="30" as="geometry" />
        </mxCell>
        <mxCell id="lzPvwHqcFnJnjvBDmgxe-122" style="edgeStyle=orthogonalEdgeStyle;rounded=0;orthogonalLoop=1;jettySize=auto;html=1;exitX=0.5;exitY=1;exitDx=0;exitDy=0;entryX=0.5;entryY=0;entryDx=0;entryDy=0;" edge="1" parent="1" source="lzPvwHqcFnJnjvBDmgxe-100" target="lzPvwHqcFnJnjvBDmgxe-102">
          <mxGeometry relative="1" as="geometry" />
        </mxCell>
        <mxCell id="lzPvwHqcFnJnjvBDmgxe-100" value="Num1: Int&lt;div&gt;Num2: Int&lt;/div&gt;&lt;div&gt;I: Int&lt;/div&gt;&lt;div&gt;Soma: Int&lt;/div&gt;" style="rounded=0;whiteSpace=wrap;html=1;dashed=1;dashPattern=8 8;" vertex="1" parent="1">
          <mxGeometry x="855" y="250" width="120" height="70" as="geometry" />
        </mxCell>
        <mxCell id="lzPvwHqcFnJnjvBDmgxe-101" style="edgeStyle=orthogonalEdgeStyle;rounded=0;orthogonalLoop=1;jettySize=auto;html=1;exitX=0.5;exitY=1;exitDx=0;exitDy=0;entryX=0.5;entryY=0;entryDx=0;entryDy=0;" edge="1" parent="1" source="lzPvwHqcFnJnjvBDmgxe-102" target="lzPvwHqcFnJnjvBDmgxe-104">
          <mxGeometry relative="1" as="geometry" />
        </mxCell>
        <mxCell id="lzPvwHqcFnJnjvBDmgxe-102" value="&quot;Digite o primeiro número&quot;" style="shape=parallelogram;perimeter=parallelogramPerimeter;whiteSpace=wrap;html=1;fixedSize=1;" vertex="1" parent="1">
          <mxGeometry x="852.5" y="391" width="125" height="40" as="geometry" />
        </mxCell>
        <mxCell id="lzPvwHqcFnJnjvBDmgxe-103" style="edgeStyle=orthogonalEdgeStyle;rounded=0;orthogonalLoop=1;jettySize=auto;html=1;exitX=0.5;exitY=1;exitDx=0;exitDy=0;entryX=0.5;entryY=0;entryDx=0;entryDy=0;" edge="1" parent="1" source="lzPvwHqcFnJnjvBDmgxe-104" target="lzPvwHqcFnJnjvBDmgxe-106">
          <mxGeometry relative="1" as="geometry" />
        </mxCell>
        <mxCell id="lzPvwHqcFnJnjvBDmgxe-104" value="&lt;div&gt;&lt;br&gt;&lt;/div&gt;&lt;div&gt;Num1&lt;/div&gt;" style="html=1;strokeWidth=1;shape=manualInput;whiteSpace=wrap;rounded=0;size=26;arcSize=11;" vertex="1" parent="1">
          <mxGeometry x="865" y="452" width="100" height="46" as="geometry" />
        </mxCell>
        <mxCell id="lzPvwHqcFnJnjvBDmgxe-105" style="edgeStyle=orthogonalEdgeStyle;rounded=0;orthogonalLoop=1;jettySize=auto;html=1;exitX=0.5;exitY=1;exitDx=0;exitDy=0;entryX=0.5;entryY=0;entryDx=0;entryDy=0;" edge="1" parent="1" source="lzPvwHqcFnJnjvBDmgxe-106" target="lzPvwHqcFnJnjvBDmgxe-108">
          <mxGeometry relative="1" as="geometry" />
        </mxCell>
        <mxCell id="lzPvwHqcFnJnjvBDmgxe-106" value="&quot;Digite o segundo número&quot;" style="shape=parallelogram;perimeter=parallelogramPerimeter;whiteSpace=wrap;html=1;fixedSize=1;" vertex="1" parent="1">
          <mxGeometry x="852.5" y="521" width="125" height="40" as="geometry" />
        </mxCell>
        <mxCell id="lzPvwHqcFnJnjvBDmgxe-107" style="edgeStyle=orthogonalEdgeStyle;rounded=0;orthogonalLoop=1;jettySize=auto;html=1;exitX=0.5;exitY=1;exitDx=0;exitDy=0;entryX=0.5;entryY=0;entryDx=0;entryDy=0;" edge="1" parent="1" source="lzPvwHqcFnJnjvBDmgxe-108" target="lzPvwHqcFnJnjvBDmgxe-113">
          <mxGeometry relative="1" as="geometry" />
        </mxCell>
        <mxCell id="lzPvwHqcFnJnjvBDmgxe-108" value="&lt;div&gt;&lt;br&gt;&lt;/div&gt;&lt;div&gt;Num2&lt;/div&gt;" style="html=1;strokeWidth=1;shape=manualInput;whiteSpace=wrap;rounded=0;size=26;arcSize=11;" vertex="1" parent="1">
          <mxGeometry x="865" y="582" width="100" height="46" as="geometry" />
        </mxCell>
        <mxCell id="lzPvwHqcFnJnjvBDmgxe-111" style="edgeStyle=orthogonalEdgeStyle;rounded=0;orthogonalLoop=1;jettySize=auto;html=1;exitX=1;exitY=0.5;exitDx=0;exitDy=0;entryX=0;entryY=0.5;entryDx=0;entryDy=0;" edge="1" parent="1" source="lzPvwHqcFnJnjvBDmgxe-113" target="lzPvwHqcFnJnjvBDmgxe-115">
          <mxGeometry relative="1" as="geometry">
            <mxPoint x="1010" y="691" as="targetPoint" />
          </mxGeometry>
        </mxCell>
        <mxCell id="lzPvwHqcFnJnjvBDmgxe-112" value="Sim" style="edgeLabel;html=1;align=center;verticalAlign=middle;resizable=0;points=[];" connectable="0" vertex="1" parent="lzPvwHqcFnJnjvBDmgxe-111">
          <mxGeometry x="-0.2709" y="2" relative="1" as="geometry">
            <mxPoint as="offset" />
          </mxGeometry>
        </mxCell>
        <mxCell id="lzPvwHqcFnJnjvBDmgxe-123" style="edgeStyle=orthogonalEdgeStyle;rounded=0;orthogonalLoop=1;jettySize=auto;html=1;exitX=0.5;exitY=1;exitDx=0;exitDy=0;entryX=0.5;entryY=0;entryDx=0;entryDy=0;" edge="1" parent="1" source="lzPvwHqcFnJnjvBDmgxe-113" target="lzPvwHqcFnJnjvBDmgxe-119">
          <mxGeometry relative="1" as="geometry" />
        </mxCell>
        <mxCell id="lzPvwHqcFnJnjvBDmgxe-113" value="Se Num1 &amp;gt;&lt;div&gt;Num2&lt;/div&gt;" style="rhombus;whiteSpace=wrap;html=1;" vertex="1" parent="1">
          <mxGeometry x="867.5" y="651" width="95" height="80" as="geometry" />
        </mxCell>
        <mxCell id="lzPvwHqcFnJnjvBDmgxe-114" style="edgeStyle=orthogonalEdgeStyle;rounded=0;orthogonalLoop=1;jettySize=auto;html=1;exitX=0.5;exitY=0;exitDx=0;exitDy=0;entryX=1;entryY=0.5;entryDx=0;entryDy=0;" edge="1" parent="1" source="lzPvwHqcFnJnjvBDmgxe-115" target="lzPvwHqcFnJnjvBDmgxe-108">
          <mxGeometry relative="1" as="geometry" />
        </mxCell>
        <mxCell id="lzPvwHqcFnJnjvBDmgxe-115" value="Trocar Num1&lt;div&gt;e Num2&lt;/div&gt;" style="rounded=0;whiteSpace=wrap;html=1;" vertex="1" parent="1">
          <mxGeometry x="1020" y="661" width="110" height="60" as="geometry" />
        </mxCell>
        <mxCell id="lzPvwHqcFnJnjvBDmgxe-126" style="edgeStyle=orthogonalEdgeStyle;rounded=0;orthogonalLoop=1;jettySize=auto;html=1;exitX=0.5;exitY=1;exitDx=0;exitDy=0;entryX=0.5;entryY=0;entryDx=0;entryDy=0;" edge="1" parent="1" source="lzPvwHqcFnJnjvBDmgxe-117" target="lzPvwHqcFnJnjvBDmgxe-125">
          <mxGeometry relative="1" as="geometry" />
        </mxCell>
        <mxCell id="lzPvwHqcFnJnjvBDmgxe-117" value="Para i de Num1+1 até Num2-1, imprima i" style="rounded=0;whiteSpace=wrap;html=1;" vertex="1" parent="1">
          <mxGeometry x="855" y="827" width="120" height="60" as="geometry" />
        </mxCell>
        <mxCell id="lzPvwHqcFnJnjvBDmgxe-124" style="edgeStyle=orthogonalEdgeStyle;rounded=0;orthogonalLoop=1;jettySize=auto;html=1;exitX=0.5;exitY=1;exitDx=0;exitDy=0;entryX=0.5;entryY=0;entryDx=0;entryDy=0;" edge="1" parent="1" source="lzPvwHqcFnJnjvBDmgxe-119" target="lzPvwHqcFnJnjvBDmgxe-117">
          <mxGeometry relative="1" as="geometry" />
        </mxCell>
        <mxCell id="lzPvwHqcFnJnjvBDmgxe-119" value="Soma=0" style="rounded=0;whiteSpace=wrap;html=1;" vertex="1" parent="1">
          <mxGeometry x="865" y="760" width="100" height="40" as="geometry" />
        </mxCell>
        <mxCell id="lzPvwHqcFnJnjvBDmgxe-129" style="edgeStyle=orthogonalEdgeStyle;rounded=0;orthogonalLoop=1;jettySize=auto;html=1;entryX=0;entryY=0.75;entryDx=0;entryDy=0;" edge="1" parent="1" source="lzPvwHqcFnJnjvBDmgxe-125" target="lzPvwHqcFnJnjvBDmgxe-108">
          <mxGeometry relative="1" as="geometry">
            <mxPoint x="800" y="600" as="targetPoint" />
            <Array as="points">
              <mxPoint x="835" y="940" />
              <mxPoint x="835" y="617" />
            </Array>
          </mxGeometry>
        </mxCell>
        <mxCell id="lzPvwHqcFnJnjvBDmgxe-131" value="" style="edgeStyle=orthogonalEdgeStyle;rounded=0;orthogonalLoop=1;jettySize=auto;html=1;" edge="1" parent="1" source="lzPvwHqcFnJnjvBDmgxe-125" target="lzPvwHqcFnJnjvBDmgxe-130">
          <mxGeometry relative="1" as="geometry" />
        </mxCell>
        <mxCell id="lzPvwHqcFnJnjvBDmgxe-125" value="Soma := Soma + i" style="rounded=0;whiteSpace=wrap;html=1;" vertex="1" parent="1">
          <mxGeometry x="855" y="910" width="120" height="60" as="geometry" />
        </mxCell>
        <mxCell id="lzPvwHqcFnJnjvBDmgxe-132" value="" style="edgeStyle=orthogonalEdgeStyle;rounded=0;orthogonalLoop=1;jettySize=auto;html=1;" edge="1" parent="1" source="lzPvwHqcFnJnjvBDmgxe-130" target="lzPvwHqcFnJnjvBDmgxe-98">
          <mxGeometry relative="1" as="geometry" />
        </mxCell>
        <mxCell id="lzPvwHqcFnJnjvBDmgxe-130" value="&quot;A soma é: &quot;, Soma&amp;nbsp;" style="shape=parallelogram;perimeter=parallelogramPerimeter;whiteSpace=wrap;html=1;fixedSize=1;" vertex="1" parent="1">
          <mxGeometry x="846.25" y="1000" width="137.5" height="40" as="geometry" />
        </mxCell>
        <mxCell id="UyuC4XjJTcWycWQ-NdQU-1" value="&lt;div style=&quot;line-height: 30%;&quot;&gt;&lt;h1 style=&quot;margin-top: 0px; line-height: 30%;&quot;&gt;&lt;font style=&quot;font-size: 18px; line-height: 30%;&quot;&gt;Algoritmo&lt;/font&gt;&lt;/h1&gt;&lt;p&gt;Algoritmo &quot;Número Elevado&quot;&lt;/p&gt;&lt;p&gt;Início&lt;/p&gt;&lt;p&gt;Var&lt;/p&gt;&lt;p style=&quot;line-height: 10%;&quot;&gt;&lt;br&gt;&lt;/p&gt;&lt;p&gt;Base: Inteiro&lt;/p&gt;&lt;p&gt;Expoente: Inteiro&lt;/p&gt;&lt;p&gt;I: Inteiro&lt;/p&gt;&lt;p style=&quot;line-height: 10%;&quot;&gt;&lt;br&gt;&lt;/p&gt;&lt;p&gt;Escreva (&quot;Digite o nº de base&quot;)&lt;/p&gt;&lt;p&gt;Leia (Base)&lt;/p&gt;&lt;p&gt;Escreva (&quot;Digite o expoente&quot;)&lt;/p&gt;&lt;p&gt;Leia (Expoente)&lt;/p&gt;&lt;p style=&quot;line-height: 10%;&quot;&gt;&lt;br&gt;&lt;/p&gt;&lt;p&gt;Para i de Base * = Base até =Base *&lt;/p&gt;&lt;p&gt;Expoente faça&lt;/p&gt;&lt;p&gt;&lt;span style=&quot;white-space: pre;&quot;&gt;&#x9;&lt;/span&gt;Escreva (i)&lt;br&gt;&lt;/p&gt;&lt;p&gt;&lt;span style=&quot;white-space: pre;&quot;&gt;&#x9;&lt;/span&gt;&lt;/p&gt;&lt;/div&gt;" style="text;html=1;whiteSpace=wrap;overflow=hidden;rounded=0;" vertex="1" parent="1">
          <mxGeometry x="40.5" y="1210" width="229.5" height="840" as="geometry" />
        </mxCell>
        <mxCell id="UyuC4XjJTcWycWQ-NdQU-2" value="&lt;h1 style=&quot;margin-top: 0px;&quot;&gt;&lt;font style=&quot;line-height: 80%;&quot;&gt;&lt;span style=&quot;line-height: 0%; font-size: 18px;&quot;&gt;Fluxograma&lt;/span&gt;&lt;br&gt;&lt;font style=&quot;font-size: 11px;&quot;&gt;&lt;i style=&quot;line-height: 150%;&quot;&gt;Fluxograma &quot;Intervalo entre Nºs&quot;&lt;/i&gt;&lt;/font&gt;&lt;/font&gt;&lt;/h1&gt;" style="text;html=1;whiteSpace=wrap;overflow=hidden;rounded=0;" vertex="1" parent="1">
          <mxGeometry x="250.5" y="1210" width="210" height="70" as="geometry" />
        </mxCell>
        <mxCell id="UyuC4XjJTcWycWQ-NdQU-23" style="edgeStyle=orthogonalEdgeStyle;rounded=0;orthogonalLoop=1;jettySize=auto;html=1;entryX=0;entryY=0.75;entryDx=0;entryDy=0;" edge="1" parent="1">
          <mxGeometry relative="1" as="geometry">
            <mxPoint x="295.5" y="1655.5" as="targetPoint" />
            <Array as="points">
              <mxPoint x="260.5" y="1830" />
              <mxPoint x="260.5" y="1656" />
            </Array>
          </mxGeometry>
        </mxCell>
        <mxCell id="UdlOC3_OavgvHH9rMkK6-1" value="&lt;div style=&quot;line-height: 40%;&quot;&gt;&lt;h1 style=&quot;margin-top: 0px; line-height: 40%;&quot;&gt;&lt;span style=&quot;font-size: 18px; background-color: transparent; color: light-dark(rgb(0, 0, 0), rgb(255, 255, 255));&quot;&gt;Algoritmo&lt;/span&gt;&lt;/h1&gt;&lt;p&gt;Algoritmo &quot;FIBONACCI&quot;&lt;span style=&quot;background-color: transparent; color: light-dark(rgb(0, 0, 0), rgb(255, 255, 255)); white-space: pre;&quot;&gt;&#x9;&lt;/span&gt;&lt;/p&gt;&lt;p&gt;var&lt;/p&gt;&lt;p&gt;n: inteiro&lt;/p&gt;&lt;p&gt;a: inteiro&lt;/p&gt;&lt;p&gt;b: inteiro&lt;/p&gt;&lt;p&gt;c: inteiro&lt;/p&gt;&lt;p&gt;&lt;br&gt;&lt;/p&gt;&lt;p&gt;Início&lt;/p&gt;&lt;p&gt;Escreva (&quot;Digite o número de termos&lt;span style=&quot;background-color: transparent; color: light-dark(rgb(0, 0, 0), rgb(255, 255, 255));&quot;&gt;&quot;)&lt;/span&gt;&lt;/p&gt;&lt;p&gt;&lt;span style=&quot;background-color: transparent; color: light-dark(rgb(0, 0, 0), rgb(255, 255, 255));&quot;&gt;Leia (n)&lt;/span&gt;&lt;/p&gt;&lt;p&gt;&lt;br&gt;&lt;/p&gt;&lt;p&gt;a = 0&lt;/p&gt;&lt;p&gt;b = 1&lt;/p&gt;&lt;p&gt;i = 1&lt;/p&gt;&lt;p&gt;&lt;br&gt;&lt;/p&gt;&lt;p&gt;Para i de 1 até n faça&lt;/p&gt;&lt;p&gt;&lt;span style=&quot;white-space: pre;&quot;&gt;&#x9;&lt;/span&gt;Se i = 1, imprima b&lt;br&gt;&lt;/p&gt;&lt;p&gt;Senão&lt;/p&gt;&lt;p&gt;&lt;span style=&quot;white-space: pre;&quot;&gt;&#x9;&lt;/span&gt;c = a + b&lt;br&gt;&lt;/p&gt;&lt;p&gt;&lt;span style=&quot;white-space: pre;&quot;&gt;&#x9;&lt;/span&gt;Imprima c&lt;/p&gt;&lt;p&gt;&lt;span style=&quot;white-space: pre;&quot;&gt;&#x9;&lt;/span&gt;a = b&lt;br&gt;&lt;/p&gt;&lt;p&gt;&lt;span style=&quot;white-space: pre;&quot;&gt;&#x9;&lt;/span&gt;b = c&lt;br&gt;&lt;/p&gt;&lt;p&gt;FimPara&lt;/p&gt;&lt;p&gt;&lt;br&gt;&lt;/p&gt;&lt;p&gt;&lt;span style=&quot;background-color: transparent; color: light-dark(rgb(0, 0, 0), rgb(255, 255, 255));&quot;&gt;FimAlgoritmo&lt;/span&gt;&lt;/p&gt;&lt;/div&gt;" style="text;html=1;whiteSpace=wrap;overflow=hidden;rounded=0;" vertex="1" parent="1">
          <mxGeometry x="612.5" y="1237" width="229.5" height="880" as="geometry" />
        </mxCell>
        <mxCell id="UdlOC3_OavgvHH9rMkK6-3" value="&lt;div style=&quot;line-height: 40%;&quot;&gt;&lt;h1 style=&quot;margin-top: 0px; line-height: 40%;&quot;&gt;&lt;span style=&quot;font-size: 18px;&quot;&gt;Fluxograma&lt;/span&gt;&lt;/h1&gt;&lt;p&gt;Fluxograma &quot;FIBONACCI&quot;&lt;/p&gt;&lt;p&gt;&lt;br&gt;&lt;/p&gt;&lt;/div&gt;" style="text;html=1;whiteSpace=wrap;overflow=hidden;rounded=0;" vertex="1" parent="1">
          <mxGeometry x="867.5" y="1241" width="229.5" height="69" as="geometry" />
        </mxCell>
        <mxCell id="UdlOC3_OavgvHH9rMkK6-4" value="Exercício 4" style="text;html=1;align=center;verticalAlign=middle;whiteSpace=wrap;rounded=0;fontSize=20;fontStyle=1" vertex="1" parent="1">
          <mxGeometry x="750" y="1207" width="117.5" height="30" as="geometry" />
        </mxCell>
        <mxCell id="UdlOC3_OavgvHH9rMkK6-15" style="edgeStyle=orthogonalEdgeStyle;rounded=0;orthogonalLoop=1;jettySize=auto;html=1;exitX=0.5;exitY=1;exitDx=0;exitDy=0;exitPerimeter=0;entryX=0.5;entryY=0;entryDx=0;entryDy=0;" edge="1" parent="1" source="UdlOC3_OavgvHH9rMkK6-5" target="UdlOC3_OavgvHH9rMkK6-14">
          <mxGeometry relative="1" as="geometry" />
        </mxCell>
        <mxCell id="UdlOC3_OavgvHH9rMkK6-5" value="Início" style="strokeWidth=1;html=1;shape=mxgraph.flowchart.start_1;whiteSpace=wrap;" vertex="1" parent="1">
          <mxGeometry x="978.87" y="1300" width="90" height="40" as="geometry" />
        </mxCell>
        <mxCell id="UdlOC3_OavgvHH9rMkK6-17" style="edgeStyle=orthogonalEdgeStyle;rounded=0;orthogonalLoop=1;jettySize=auto;html=1;exitX=0.5;exitY=1;exitDx=0;exitDy=0;entryX=0.5;entryY=0;entryDx=0;entryDy=0;" edge="1" parent="1" source="UdlOC3_OavgvHH9rMkK6-14" target="UdlOC3_OavgvHH9rMkK6-16">
          <mxGeometry relative="1" as="geometry" />
        </mxCell>
        <mxCell id="UdlOC3_OavgvHH9rMkK6-14" value="n, a, b, c: int" style="rounded=0;whiteSpace=wrap;html=1;dashed=1;" vertex="1" parent="1">
          <mxGeometry x="963.87" y="1360" width="120" height="60" as="geometry" />
        </mxCell>
        <mxCell id="UdlOC3_OavgvHH9rMkK6-19" style="edgeStyle=orthogonalEdgeStyle;rounded=0;orthogonalLoop=1;jettySize=auto;html=1;exitX=0.5;exitY=1;exitDx=0;exitDy=0;entryX=0.5;entryY=0;entryDx=0;entryDy=0;" edge="1" parent="1" source="UdlOC3_OavgvHH9rMkK6-16" target="UdlOC3_OavgvHH9rMkK6-18">
          <mxGeometry relative="1" as="geometry" />
        </mxCell>
        <mxCell id="UdlOC3_OavgvHH9rMkK6-16" value="&quot;Digite o número de termos&quot;" style="shape=parallelogram;perimeter=parallelogramPerimeter;whiteSpace=wrap;html=1;fixedSize=1;" vertex="1" parent="1">
          <mxGeometry x="952.87" y="1450" width="142" height="50" as="geometry" />
        </mxCell>
        <mxCell id="UdlOC3_OavgvHH9rMkK6-21" style="edgeStyle=orthogonalEdgeStyle;rounded=0;orthogonalLoop=1;jettySize=auto;html=1;exitX=0.5;exitY=1;exitDx=0;exitDy=0;entryX=0.5;entryY=0;entryDx=0;entryDy=0;" edge="1" parent="1" source="UdlOC3_OavgvHH9rMkK6-18" target="UdlOC3_OavgvHH9rMkK6-20">
          <mxGeometry relative="1" as="geometry" />
        </mxCell>
        <mxCell id="UdlOC3_OavgvHH9rMkK6-18" value="&lt;div&gt;&lt;br&gt;&lt;/div&gt;&lt;div&gt;n&lt;/div&gt;" style="html=1;strokeWidth=1;shape=manualInput;whiteSpace=wrap;rounded=0;size=26;arcSize=11;" vertex="1" parent="1">
          <mxGeometry x="973.87" y="1530" width="100" height="46" as="geometry" />
        </mxCell>
        <mxCell id="UdlOC3_OavgvHH9rMkK6-23" style="edgeStyle=orthogonalEdgeStyle;rounded=0;orthogonalLoop=1;jettySize=auto;html=1;exitX=0.5;exitY=1;exitDx=0;exitDy=0;entryX=0.5;entryY=0;entryDx=0;entryDy=0;" edge="1" parent="1" source="UdlOC3_OavgvHH9rMkK6-20" target="UdlOC3_OavgvHH9rMkK6-22">
          <mxGeometry relative="1" as="geometry" />
        </mxCell>
        <mxCell id="UdlOC3_OavgvHH9rMkK6-20" value="a = 0&lt;div&gt;b = 1&lt;/div&gt;&lt;div&gt;i = 1&lt;/div&gt;" style="rounded=0;whiteSpace=wrap;html=1;" vertex="1" parent="1">
          <mxGeometry x="963.87" y="1605" width="120" height="50" as="geometry" />
        </mxCell>
        <mxCell id="UdlOC3_OavgvHH9rMkK6-25" style="edgeStyle=orthogonalEdgeStyle;rounded=0;orthogonalLoop=1;jettySize=auto;html=1;exitX=0.5;exitY=1;exitDx=0;exitDy=0;entryX=0.5;entryY=0;entryDx=0;entryDy=0;" edge="1" parent="1" source="UdlOC3_OavgvHH9rMkK6-22" target="UdlOC3_OavgvHH9rMkK6-24">
          <mxGeometry relative="1" as="geometry" />
        </mxCell>
        <mxCell id="UdlOC3_OavgvHH9rMkK6-22" value="Para i de 1 até n" style="rounded=0;whiteSpace=wrap;html=1;" vertex="1" parent="1">
          <mxGeometry x="963.87" y="1680" width="120" height="60" as="geometry" />
        </mxCell>
        <mxCell id="UdlOC3_OavgvHH9rMkK6-27" style="edgeStyle=orthogonalEdgeStyle;rounded=0;orthogonalLoop=1;jettySize=auto;html=1;exitX=0.5;exitY=1;exitDx=0;exitDy=0;entryX=0.5;entryY=0;entryDx=0;entryDy=0;" edge="1" parent="1" source="UdlOC3_OavgvHH9rMkK6-24" target="UdlOC3_OavgvHH9rMkK6-29">
          <mxGeometry relative="1" as="geometry">
            <mxPoint x="1023.8699999999999" y="1890" as="targetPoint" />
          </mxGeometry>
        </mxCell>
        <mxCell id="UdlOC3_OavgvHH9rMkK6-28" value="Sim" style="edgeLabel;html=1;align=center;verticalAlign=middle;resizable=0;points=[];" connectable="0" vertex="1" parent="UdlOC3_OavgvHH9rMkK6-27">
          <mxGeometry x="-0.3429" y="-1" relative="1" as="geometry">
            <mxPoint as="offset" />
          </mxGeometry>
        </mxCell>
        <mxCell id="UdlOC3_OavgvHH9rMkK6-24" value="i &amp;lt;= n" style="rhombus;whiteSpace=wrap;html=1;" vertex="1" parent="1">
          <mxGeometry x="968.87" y="1770" width="110" height="90" as="geometry" />
        </mxCell>
        <mxCell id="UdlOC3_OavgvHH9rMkK6-32" style="edgeStyle=orthogonalEdgeStyle;rounded=0;orthogonalLoop=1;jettySize=auto;html=1;exitX=0.5;exitY=1;exitDx=0;exitDy=0;entryX=0.5;entryY=0;entryDx=0;entryDy=0;" edge="1" parent="1" source="UdlOC3_OavgvHH9rMkK6-29" target="UdlOC3_OavgvHH9rMkK6-31">
          <mxGeometry relative="1" as="geometry" />
        </mxCell>
        <mxCell id="UdlOC3_OavgvHH9rMkK6-33" value="Sim" style="edgeLabel;html=1;align=center;verticalAlign=middle;resizable=0;points=[];" connectable="0" vertex="1" parent="UdlOC3_OavgvHH9rMkK6-32">
          <mxGeometry x="-0.2926" y="-1" relative="1" as="geometry">
            <mxPoint as="offset" />
          </mxGeometry>
        </mxCell>
        <mxCell id="UdlOC3_OavgvHH9rMkK6-35" value="" style="edgeStyle=orthogonalEdgeStyle;rounded=0;orthogonalLoop=1;jettySize=auto;html=1;" edge="1" parent="1" source="UdlOC3_OavgvHH9rMkK6-29" target="UdlOC3_OavgvHH9rMkK6-34">
          <mxGeometry relative="1" as="geometry" />
        </mxCell>
        <mxCell id="UdlOC3_OavgvHH9rMkK6-43" value="Não" style="edgeLabel;html=1;align=center;verticalAlign=middle;resizable=0;points=[];" connectable="0" vertex="1" parent="UdlOC3_OavgvHH9rMkK6-35">
          <mxGeometry x="-0.3777" y="2" relative="1" as="geometry">
            <mxPoint as="offset" />
          </mxGeometry>
        </mxCell>
        <mxCell id="UdlOC3_OavgvHH9rMkK6-29" value="i == 1" style="rhombus;whiteSpace=wrap;html=1;" vertex="1" parent="1">
          <mxGeometry x="968.87" y="1893" width="110" height="90" as="geometry" />
        </mxCell>
        <mxCell id="UdlOC3_OavgvHH9rMkK6-53" style="edgeStyle=orthogonalEdgeStyle;rounded=0;orthogonalLoop=1;jettySize=auto;html=1;exitX=0.5;exitY=1;exitDx=0;exitDy=0;entryX=0;entryY=0.5;entryDx=0;entryDy=0;" edge="1" parent="1" source="UdlOC3_OavgvHH9rMkK6-31" target="UdlOC3_OavgvHH9rMkK6-50">
          <mxGeometry relative="1" as="geometry" />
        </mxCell>
        <mxCell id="UdlOC3_OavgvHH9rMkK6-31" value="Imprimir b" style="rounded=0;whiteSpace=wrap;html=1;" vertex="1" parent="1">
          <mxGeometry x="963.87" y="2020" width="120" height="60" as="geometry" />
        </mxCell>
        <mxCell id="UdlOC3_OavgvHH9rMkK6-37" value="" style="edgeStyle=orthogonalEdgeStyle;rounded=0;orthogonalLoop=1;jettySize=auto;html=1;" edge="1" parent="1" source="UdlOC3_OavgvHH9rMkK6-34" target="UdlOC3_OavgvHH9rMkK6-36">
          <mxGeometry relative="1" as="geometry" />
        </mxCell>
        <mxCell id="UdlOC3_OavgvHH9rMkK6-34" value="c = a + b" style="whiteSpace=wrap;html=1;" vertex="1" parent="1">
          <mxGeometry x="1120" y="1908" width="120" height="60" as="geometry" />
        </mxCell>
        <mxCell id="UdlOC3_OavgvHH9rMkK6-40" style="edgeStyle=orthogonalEdgeStyle;rounded=0;orthogonalLoop=1;jettySize=auto;html=1;entryX=0.5;entryY=0;entryDx=0;entryDy=0;" edge="1" parent="1" source="UdlOC3_OavgvHH9rMkK6-36" target="UdlOC3_OavgvHH9rMkK6-38">
          <mxGeometry relative="1" as="geometry" />
        </mxCell>
        <mxCell id="UdlOC3_OavgvHH9rMkK6-36" value="Imprimir c" style="whiteSpace=wrap;html=1;" vertex="1" parent="1">
          <mxGeometry x="1120" y="2020" width="120" height="60" as="geometry" />
        </mxCell>
        <mxCell id="UdlOC3_OavgvHH9rMkK6-49" value="" style="edgeStyle=orthogonalEdgeStyle;rounded=0;orthogonalLoop=1;jettySize=auto;html=1;" edge="1" parent="1" source="UdlOC3_OavgvHH9rMkK6-38" target="UdlOC3_OavgvHH9rMkK6-48">
          <mxGeometry relative="1" as="geometry" />
        </mxCell>
        <mxCell id="UdlOC3_OavgvHH9rMkK6-38" value="a = b" style="whiteSpace=wrap;html=1;rounded=0;" vertex="1" parent="1">
          <mxGeometry x="1120" y="2110" width="120" height="40" as="geometry" />
        </mxCell>
        <mxCell id="UdlOC3_OavgvHH9rMkK6-44" value="Fim" style="strokeWidth=1;html=1;shape=mxgraph.flowchart.terminator;whiteSpace=wrap;" vertex="1" parent="1">
          <mxGeometry x="806.25" y="1790" width="100" height="50" as="geometry" />
        </mxCell>
        <mxCell id="UdlOC3_OavgvHH9rMkK6-52" style="edgeStyle=orthogonalEdgeStyle;rounded=0;orthogonalLoop=1;jettySize=auto;html=1;exitX=0.5;exitY=1;exitDx=0;exitDy=0;entryX=0.5;entryY=0;entryDx=0;entryDy=0;" edge="1" parent="1" source="UdlOC3_OavgvHH9rMkK6-48" target="UdlOC3_OavgvHH9rMkK6-50">
          <mxGeometry relative="1" as="geometry" />
        </mxCell>
        <mxCell id="UdlOC3_OavgvHH9rMkK6-48" value="b = c" style="whiteSpace=wrap;html=1;rounded=0;" vertex="1" parent="1">
          <mxGeometry x="1120" y="2180" width="120" height="40" as="geometry" />
        </mxCell>
        <mxCell id="UdlOC3_OavgvHH9rMkK6-51" style="edgeStyle=orthogonalEdgeStyle;rounded=0;orthogonalLoop=1;jettySize=auto;html=1;exitX=1;exitY=0.5;exitDx=0;exitDy=0;entryX=1;entryY=0.5;entryDx=0;entryDy=0;" edge="1" parent="1" source="UdlOC3_OavgvHH9rMkK6-50" target="UdlOC3_OavgvHH9rMkK6-24">
          <mxGeometry relative="1" as="geometry">
            <mxPoint x="1280" y="1850" as="targetPoint" />
          </mxGeometry>
        </mxCell>
        <mxCell id="UdlOC3_OavgvHH9rMkK6-50" value="i = i + 1" style="whiteSpace=wrap;html=1;rounded=0;" vertex="1" parent="1">
          <mxGeometry x="1120" y="2250" width="120" height="40" as="geometry" />
        </mxCell>
        <mxCell id="UdlOC3_OavgvHH9rMkK6-55" style="edgeStyle=orthogonalEdgeStyle;rounded=0;orthogonalLoop=1;jettySize=auto;html=1;exitX=0;exitY=0.5;exitDx=0;exitDy=0;entryX=1;entryY=0.5;entryDx=0;entryDy=0;entryPerimeter=0;" edge="1" parent="1" source="UdlOC3_OavgvHH9rMkK6-24" target="UdlOC3_OavgvHH9rMkK6-44">
          <mxGeometry relative="1" as="geometry" />
        </mxCell>
        <mxCell id="UdlOC3_OavgvHH9rMkK6-56" value="Não" style="edgeLabel;html=1;align=center;verticalAlign=middle;resizable=0;points=[];" connectable="0" vertex="1" parent="UdlOC3_OavgvHH9rMkK6-55">
          <mxGeometry x="-0.2775" y="-2" relative="1" as="geometry">
            <mxPoint as="offset" />
          </mxGeometry>
        </mxCell>
      </root>
    </mxGraphModel>
  </diagram>
</mxfile>
